<mxfile host="app.diagrams.net" modified="2021-03-16T16:54:56.409Z" agent="5.0 (Macintosh)" etag="yM37ZTx8qb9SR2p6fbeF" version="14.4.8" type="github">
  <diagram id="0HAzvG56IJI0RBkjW7e8" name="Page-1">
    <mxGraphModel dx="1426" dy="803" grid="1" gridSize="10" guides="1" tooltips="1" connect="1" arrows="1" fold="1" page="1" pageScale="1" pageWidth="850" pageHeight="1100" math="0" shadow="0">
      <root>
        <mxCell id="0" />
        <mxCell id="1" parent="0" />
        <mxCell id="-8uX41TjsgHpTPZW54QX-1" value="[null]" style="rounded=0;whiteSpace=wrap;html=1;" vertex="1" parent="1">
          <mxGeometry x="350" y="40" width="120" height="60" as="geometry" />
        </mxCell>
        <mxCell id="-8uX41TjsgHpTPZW54QX-2" value="" style="endArrow=classic;html=1;" edge="1" parent="1">
          <mxGeometry width="50" height="50" relative="1" as="geometry">
            <mxPoint x="409.5" y="100" as="sourcePoint" />
            <mxPoint x="409.5" y="170" as="targetPoint" />
          </mxGeometry>
        </mxCell>
        <mxCell id="-8uX41TjsgHpTPZW54QX-3" value="JS Quiz Home Page" style="rounded=0;whiteSpace=wrap;html=1;" vertex="1" parent="1">
          <mxGeometry x="350" y="170" width="120" height="60" as="geometry" />
        </mxCell>
        <mxCell id="-8uX41TjsgHpTPZW54QX-4" value="" style="endArrow=classic;html=1;" edge="1" parent="1">
          <mxGeometry width="50" height="50" relative="1" as="geometry">
            <mxPoint x="409.5" y="230" as="sourcePoint" />
            <mxPoint x="409.5" y="290" as="targetPoint" />
          </mxGeometry>
        </mxCell>
        <mxCell id="-8uX41TjsgHpTPZW54QX-5" value="1. GET /" style="text;html=1;align=center;verticalAlign=middle;resizable=0;points=[];autosize=1;" vertex="1" parent="1">
          <mxGeometry x="430" y="120" width="60" height="20" as="geometry" />
        </mxCell>
        <mxCell id="-8uX41TjsgHpTPZW54QX-6" value="2. GET/answers" style="text;html=1;align=center;verticalAlign=middle;resizable=0;points=[];autosize=1;" vertex="1" parent="1">
          <mxGeometry x="420" y="250" width="100" height="20" as="geometry" />
        </mxCell>
        <mxCell id="-8uX41TjsgHpTPZW54QX-7" value="Answers" style="rounded=0;whiteSpace=wrap;html=1;" vertex="1" parent="1">
          <mxGeometry x="350" y="290" width="120" height="60" as="geometry" />
        </mxCell>
        <mxCell id="-8uX41TjsgHpTPZW54QX-8" value="3. Refresh Browser" style="text;html=1;align=center;verticalAlign=middle;resizable=0;points=[];autosize=1;" vertex="1" parent="1">
          <mxGeometry x="280" y="360" width="120" height="20" as="geometry" />
        </mxCell>
        <mxCell id="-8uX41TjsgHpTPZW54QX-9" value="" style="endArrow=classic;html=1;exitX=0.5;exitY=1;exitDx=0;exitDy=0;entryX=0;entryY=0.5;entryDx=0;entryDy=0;" edge="1" parent="1" source="-8uX41TjsgHpTPZW54QX-7" target="-8uX41TjsgHpTPZW54QX-3">
          <mxGeometry width="50" height="50" relative="1" as="geometry">
            <mxPoint x="420" y="410" as="sourcePoint" />
            <mxPoint x="280" y="200" as="targetPoint" />
            <Array as="points">
              <mxPoint x="410" y="380" />
              <mxPoint x="280" y="380" />
              <mxPoint x="280" y="200" />
            </Array>
          </mxGeometry>
        </mxCell>
      </root>
    </mxGraphModel>
  </diagram>
</mxfile>
